<svg width="20" height="20" viewBox="0 0 20 20" fill="none" xmlns="http://www.w3.org/2000/svg">
<g clip-path="url(#clip0_111_24)">
<path d="M10.1 0.599997C9.83907 0.631247 1.70626 6.08437 1.65938 6.25C1.61251 6.41718 1.59376 8.15468 1.59376 8.15468L2.64219 8.4875L2.64688 9.86875L3.20782 11.0172V15.8719L2.78907 16.7859L1.64063 17.125V17.9469L0.740631 18.2203C0.740631 18.2203 0.753131 18.925 0.753131 19.0422C0.753131 19.1594 0.792194 19.4078 1.26251 19.4078C1.73282 19.4078 18.8984 19.3281 19.0719 19.3281C19.2453 19.3281 19.425 19.2937 19.4344 18.9828C19.4438 18.6719 19.425 18.2328 19.425 18.2328L18.5531 17.8016L18.55 17.1125L17.1313 16.675L16.7891 15.7062L16.7938 11.1422L17.3375 9.99531L17.5016 9.68437V8.45L18.4156 8.10468C18.4156 8.10468 18.4328 6.31875 18.4063 6.26718C18.3828 6.21718 10.3156 0.574997 10.1 0.599997Z" fill="#CDDFEE"/>
<path d="M2.39531 6.6125C2.34688 6.73281 2.33438 7.62031 2.37813 7.66406C2.42188 7.70781 17.525 7.68437 17.5766 7.64219C17.6281 7.6 17.6359 6.63594 17.6109 6.57656C17.5859 6.51719 13.3281 3.60938 13.3281 3.60938L6.74531 3.64219C6.74375 3.64219 2.42344 6.54062 2.39531 6.6125ZM0.740625 18.2234C0.726562 18.1891 0.740625 18.0266 0.740625 17.9609C0.740625 17.8953 0.803125 17.8203 0.94375 17.8203C1.08438 17.8203 18.9344 17.7953 19.0219 17.7984C19.2422 17.8063 19.3906 17.8531 19.4125 17.9938C19.4344 18.1344 19.4266 18.2359 19.4266 18.2359L0.740625 18.2234ZM18.5516 17.1141L1.64219 17.1266C1.64219 17.1266 1.64844 16.9531 1.64844 16.8938C1.64844 16.8344 1.67969 16.7375 1.88125 16.7375C2.08281 16.7375 18.1187 16.6766 18.2562 16.6766C18.3937 16.6766 18.5438 16.7406 18.5625 16.8359C18.5813 16.9313 18.5516 17.1141 18.5516 17.1141ZM16.9156 16.0672L16.7906 15.7016L3.20469 15.6984L3.10313 16.1063L16.9156 16.0672ZM3.04844 10.6844L16.9953 10.7328L16.7953 11.1422L3.20938 11.1938L3.04844 10.6844ZM2.74375 10.1094C2.74375 10.1094 2.62031 10.0203 2.6 9.90312C2.57969 9.78594 2.63438 9.71719 2.63438 9.71719L17.5031 9.68437C17.5031 9.68437 17.5594 9.8 17.5109 9.88125C17.4625 9.96406 17.325 10.0391 17.325 10.0391L2.74375 10.1094ZM1.59375 8.15469L18.4172 8.10469C18.4172 8.10469 18.4281 8.26563 18.4172 8.33281C18.4078 8.4 18.3203 8.45937 18.0969 8.45937H17.8734C17.8734 8.45937 2.125 8.5375 1.95 8.5375C1.775 8.5375 1.65 8.44063 1.62031 8.3625C1.60313 8.31094 1.59375 8.15469 1.59375 8.15469Z" fill="#94ADBC"/>
<path d="M2.81406 7.03595L6.35312 4.64689L6.59062 7.08283L2.81406 7.03595ZM13.6797 4.5672L17.2234 7.0672H13.5844L13.6797 4.5672Z" fill="#657582"/>
<path d="M5.2203 10.0984L5.80311 10.0969L6.25936 11.1922L6.21718 15.7016L5.83749 16.7234L5.15936 16.725L4.78593 15.7078L4.76874 11.1828L5.2203 10.0984ZM8.32343 10.0828L7.74374 11.1672L7.78749 15.7016L8.13124 16.7156L11.9172 16.7L12.2578 15.7016L12.2672 11.1578L11.825 10.0656L8.32343 10.0828ZM14.2766 10.0547L14.7906 10.0516L15.2453 11.1469L15.2437 15.7031L14.9797 16.6906L14.1219 16.6922L13.8594 15.7031L13.8391 11.1516L14.2766 10.0547Z" fill="#54636E"/>
<path d="M8.53436 16.7141V13.2375L11.5844 13.2672L11.5906 16.7047L8.53436 16.7141Z" fill="#6BA4AE"/>
<path d="M9.88437 13.0797L9.88281 16.7094L10.1984 16.7078V13.1328L9.88437 13.0797Z" fill="#A5D0D7"/>
<path d="M8.53436 13.4031V12.5312H11.5844V13.4031C11.5844 13.4031 8.56093 13.3766 8.53436 13.4031Z" fill="#95ACBC"/>
<path d="M8.53438 12.5313H11.5844C11.5844 12.5313 11.5969 12.2594 11.3141 12.2328C11.0313 12.2063 8.95313 12.2281 8.77813 12.2328C8.51719 12.2406 8.53438 12.5313 8.53438 12.5313Z" fill="#CCDEED"/>
<path d="M10.0609 1.73593C7.79688 1.74999 6.00469 3.54062 6.08125 5.80468C6.15782 8.06874 8.23438 9.66093 10.0609 9.64687C11.9781 9.63281 13.9969 8.26093 14.0875 5.79218C14.1797 3.32499 12.1016 1.72187 10.0609 1.73593Z" fill="#CDDFEE"/>
<path d="M10.075 2.27811C8.17969 2.29061 6.6625 3.8453 6.72657 5.81717C6.78907 7.78905 8.45782 9.03905 9.9875 9.05311C11.7516 9.06874 13.375 7.91561 13.45 5.76717C13.525 3.61874 11.7828 2.26717 10.075 2.27811Z" fill="#94ADBC"/>
<path d="M9.52812 3.37968C9.52812 3.37968 9.49374 2.77656 9.53593 2.72499C9.57812 2.67343 9.74999 2.67343 10.0828 2.67343C10.4172 2.67343 10.5531 2.67343 10.6047 2.71562C10.6562 2.75781 10.6297 3.41718 10.6297 3.41718C10.6297 3.41718 11.0828 3.58749 11.3656 3.80624C11.6656 4.03749 11.8797 4.34531 11.8625 4.39687C11.8453 4.44843 11.2469 4.97031 11.1609 4.95312C11.075 4.93593 10.5875 4.36562 10.0062 4.32812C9.0828 4.26874 9.09062 4.98749 9.66405 5.18437C10.2375 5.38124 12.0453 5.53749 11.975 6.97656C11.9156 8.18749 10.6922 8.27343 10.6922 8.27343C10.6922 8.27343 10.7266 8.72656 10.6922 8.75312C10.6578 8.77968 9.57968 8.79531 9.5453 8.74531C9.51093 8.69531 9.53749 8.23124 9.53749 8.23124C9.53749 8.23124 9.0578 8.13749 8.66405 7.87187C8.2703 7.60624 7.98749 7.25624 7.97968 7.21249C7.97187 7.17031 8.67343 6.57968 8.72343 6.56249C8.77343 6.54531 9.48749 7.24843 10.1609 7.30624C10.8453 7.36562 11.1359 6.69062 10.1859 6.39999C9.23593 6.10937 8.11562 5.86093 8.16718 4.67187C8.21874 3.46406 9.52812 3.37968 9.52812 3.37968Z" fill="#024FAC"/>
</g>
<defs>
<clipPath id="clip0_111_24">
<rect width="20" height="20" fill="white"/>
</clipPath>
</defs>
</svg>
