<svg width="20" height="20" viewBox="0 0 20 20" fill="none" xmlns="http://www.w3.org/2000/svg">
<path d="M15.6358 8.53C15.8683 6.95083 14.6733 6.10917 13.0267 5.5375L13.56 3.41L12.26 3.08583L11.7408 5.16083L10.7033 4.91333L11.2292 2.82333L9.92916 2.5L9.39499 4.635L8.56832 4.44V4.43167L6.77082 3.98167L6.42499 5.37167C6.42499 5.37167 7.38749 5.59833 7.37249 5.605C7.89832 5.74083 7.98916 6.08667 7.97416 6.3575L7.37166 8.79333L7.50749 8.83833L7.36499 8.80833L6.51499 12.2142C6.45499 12.3725 6.28999 12.6125 5.92166 12.5142C5.93666 12.5375 4.98166 12.2892 4.98166 12.2892L4.33499 13.7708L6.02666 14.1917L6.95166 14.4325L6.40999 16.5908L7.70999 16.9133L8.23749 14.7783L9.28166 15.0483L8.74832 17.1767L10.0483 17.5L10.5825 15.3417C12.8008 15.7625 14.47 15.5975 15.17 13.59C15.7333 11.9733 15.1392 11.0483 13.9742 10.4317C14.8242 10.2442 15.4625 9.68 15.6283 8.53H15.6358ZM12.6658 12.6958C12.2667 14.3125 9.54499 13.4325 8.66582 13.2208L9.37999 10.3575C10.2592 10.5825 13.0867 11.0108 12.6658 12.6875V12.6958ZM13.0642 8.5075C12.7033 9.97417 10.4325 9.22917 9.70332 9.04917L10.3492 6.455C11.0867 6.63583 13.4475 6.98167 13.0642 8.5075Z" fill="#F7931A"/>
</svg>
