<svg width="16" height="16" viewBox="0 0 16 16" fill="none" xmlns="http://www.w3.org/2000/svg">
<g clip-path="url(#clip0_81_43)">
<path d="M7.24342 4.22857C7.16488 4.00543 7.01904 3.81216 6.82601 3.67542C6.63297 3.53868 6.40226 3.46521 6.16571 3.46515H5.27999C5.02873 3.46585 4.78655 3.55922 4.59985 3.72738C4.41315 3.89554 4.29504 4.12666 4.26815 4.37648C4.24126 4.6263 4.30747 4.87727 4.4541 5.08131C4.60074 5.28535 4.81749 5.42812 5.06285 5.48229L6.40914 5.77715C6.68461 5.83727 6.92814 5.99711 7.09289 6.22592C7.25764 6.45474 7.332 6.73638 7.30165 7.01671C7.27131 7.29703 7.13841 7.55624 6.92851 7.7445C6.71861 7.93277 6.44652 8.03679 6.16456 8.03657H5.40228C5.166 8.03667 4.93549 7.96354 4.74249 7.82723C4.54949 7.69092 4.40348 7.49814 4.32456 7.27543M5.78514 3.46515V2.32229M5.78514 9.17943V8.03657M7.96456 15.4274V9.42743C7.96456 9.04855 8.11507 8.68519 8.38298 8.41728C8.65089 8.14937 9.01425 7.99886 9.39314 7.99886C9.77202 7.99886 10.1354 8.14937 10.4033 8.41728C10.6712 8.68519 10.8217 9.04855 10.8217 9.42743V12.5703H13.1074C13.7136 12.5703 14.295 12.8111 14.7237 13.2398C15.1523 13.6684 15.3931 14.2498 15.3931 14.856V15.4274" stroke="#00B600" stroke-linecap="round" stroke-linejoin="round"/>
<path d="M5.78628 10.9303C4.73186 10.9301 3.7026 10.6081 2.83613 10.0072C1.96966 9.40637 1.30727 8.55531 0.937519 7.56784C0.56777 6.58037 0.508285 5.50355 0.767018 4.48136C1.02575 3.45917 1.59037 2.54033 2.38539 1.84768C3.1804 1.15503 4.16792 0.721587 5.21592 0.605302C6.26391 0.489017 7.32243 0.695433 8.24995 1.19695C9.17747 1.69847 9.92978 2.47119 10.4063 3.4118C10.8828 4.3524 11.0609 5.41606 10.9166 6.46057" stroke="#00B600" stroke-linecap="round"/>
</g>
<defs>
<clipPath id="clip0_81_43">
<rect width="16" height="16" fill="white"/>
</clipPath>
</defs>
</svg>
