<svg width="18" height="20" viewBox="0 0 18 20" fill="none" xmlns="http://www.w3.org/2000/svg">
<path d="M6.5 1H11.5C11.8978 1 12.2794 1.15804 12.5607 1.43934C12.842 1.72064 13 2.10218 13 2.5C13 3.42826 12.6313 4.3185 11.9749 4.97487C11.3185 5.63125 10.4283 6 9.5 6H8.5C7.57174 6 6.6815 5.63125 6.02513 4.97487C5.36875 4.3185 5 3.42826 5 2.5C5 2.10218 5.15804 1.72064 5.43934 1.43934C5.72064 1.15804 6.10218 1 6.5 1Z" stroke="white" stroke-width="2" stroke-linecap="round" stroke-linejoin="round"/>
<path d="M1 15V14C1 11.8783 1.84285 9.84344 3.34315 8.34315C4.84344 6.84285 6.87827 6 9 6C11.1217 6 13.1566 6.84285 14.6569 8.34315C16.1571 9.84344 17 11.8783 17 14V15C17 16.0609 16.5786 17.0783 15.8284 17.8284C15.0783 18.5786 14.0609 19 13 19H5C3.93913 19 2.92172 18.5786 2.17157 17.8284C1.42143 17.0783 1 16.0609 1 15Z" stroke="white" stroke-width="2" stroke-linecap="round" stroke-linejoin="round"/>
</svg>
