<svg width="16" height="16" viewBox="0 0 16 16" fill="none" xmlns="http://www.w3.org/2000/svg">
<path d="M15 3.5V7.5C15.0001 7.59895 14.9708 7.69569 14.9159 7.77799C14.8609 7.86029 14.7828 7.92444 14.6914 7.96231C14.6 8.00019 14.4994 8.01009 14.4024 7.99076C14.3053 7.97144 14.2162 7.92376 14.1463 7.85375L12.5 6.20688L8.85375 9.85375C8.80732 9.90024 8.75217 9.93712 8.69147 9.96228C8.63077 9.98744 8.56571 10.0004 8.5 10.0004C8.4343 10.0004 8.36923 9.98744 8.30853 9.96228C8.24783 9.93712 8.19269 9.90024 8.14625 9.85375L6 7.70687L1.85375 11.8538C1.75993 11.9476 1.63269 12.0003 1.5 12.0003C1.36732 12.0003 1.24007 11.9476 1.14625 11.8538C1.05243 11.7599 0.999725 11.6327 0.999725 11.5C0.999725 11.3673 1.05243 11.2401 1.14625 11.1462L5.64625 6.64625C5.69269 6.59976 5.74783 6.56288 5.80853 6.53772C5.86923 6.51256 5.9343 6.49961 6 6.49961C6.06571 6.49961 6.13077 6.51256 6.19147 6.53772C6.25217 6.56288 6.30732 6.59976 6.35375 6.64625L8.5 8.79313L11.7931 5.5L10.1463 3.85375C10.0762 3.78382 10.0286 3.6947 10.0092 3.59765C9.98991 3.50061 9.99982 3.40002 10.0377 3.30861C10.0756 3.21719 10.1397 3.13908 10.222 3.08414C10.3043 3.0292 10.4011 2.99992 10.5 3H14.5C14.6326 3 14.7598 3.05268 14.8536 3.14645C14.9473 3.24022 15 3.36739 15 3.5Z" fill="#00B600"/>
</svg>
