<svg width="16" height="16" viewBox="0 0 16 16" fill="none" xmlns="http://www.w3.org/2000/svg">
<path d="M15 8V12C15 12.1326 14.9473 12.2598 14.8536 12.3536C14.7598 12.4473 14.6326 12.5 14.5 12.5H10.5C10.4011 12.5001 10.3043 12.4708 10.222 12.4159C10.1397 12.3609 10.0756 12.2828 10.0377 12.1914C9.99982 12.1 9.98991 11.9994 10.0092 11.9023C10.0286 11.8053 10.0762 11.7162 10.1463 11.6462L11.7931 10L8.5 6.70687L6.35375 8.85375C6.30732 8.90024 6.25217 8.93712 6.19147 8.96228C6.13077 8.98744 6.06571 9.00039 6 9.00039C5.9343 9.00039 5.86923 8.98744 5.80853 8.96228C5.74783 8.93712 5.69269 8.90024 5.64625 8.85375L1.14625 4.35375C1.05243 4.25993 0.999725 4.13268 0.999725 4C0.999725 3.86732 1.05243 3.74007 1.14625 3.64625C1.24007 3.55243 1.36732 3.49972 1.5 3.49972C1.63269 3.49972 1.75993 3.55243 1.85375 3.64625L6 7.79312L8.14625 5.64625C8.19269 5.59976 8.24783 5.56288 8.30853 5.53772C8.36923 5.51256 8.4343 5.49961 8.5 5.49961C8.56571 5.49961 8.63077 5.51256 8.69147 5.53772C8.75217 5.56288 8.80732 5.59976 8.85375 5.64625L12.5 9.29312L14.1463 7.64625C14.2162 7.57624 14.3053 7.52856 14.4024 7.50923C14.4994 7.48991 14.6 7.49981 14.6914 7.53769C14.7828 7.57556 14.8609 7.63971 14.9159 7.72201C14.9708 7.80431 15.0001 7.90105 15 8Z" fill="#E13654"/>
</svg>
