<svg width="90" height="24" viewBox="0 0 90 24" fill="none" xmlns="http://www.w3.org/2000/svg">
<path d="M8.01562 2.37375L4.64531 2.74125L5.30625 8.79422H7.21406L8.01562 2.37375Z" fill="#898989"/>
<path d="M8.97187 1.5L8.05781 8.79422H10.0641L12.3656 1.92375L8.97187 1.5Z" fill="#C8C6C6"/>
<path d="M13.2703 1.875L10.9547 8.79422L17.9719 8.79891L19.5797 3.98906L13.2703 1.875Z" fill="#232323"/>
<path fill-rule="evenodd" clip-rule="evenodd" d="M2.57812 7.38797C2.03906 7.38797 1.67906 7.80047 1.58109 8.19422C1.53234 8.39109 1.56 8.55047 1.61531 8.63953C1.67016 8.72391 1.74609 8.79422 2.01562 8.79422H4.45781L4.30313 7.38797H2.57812ZM19.3312 7.38797L18.8625 8.79422H21.0891C20.9672 8.55984 20.9156 8.31141 20.9484 8.06297C20.9812 7.81922 21.075 7.59891 21.1969 7.38797H19.3312ZM17.5781 14.888C16.6406 14.888 16.6406 17.0442 17.5781 17.0442H18.6234C18.2016 16.8661 17.9062 16.4489 17.9062 15.9661C17.9062 15.4833 18.2016 15.0661 18.6234 14.888H17.5781ZM19.5328 14.888C19.9547 15.0661 20.25 15.4833 20.25 15.9661C20.25 16.4489 19.9547 16.8661 19.5328 17.0442H22.4062V14.888H19.5328ZM19.0781 15.638C18.8906 15.638 18.75 15.7786 18.75 15.9661C18.75 16.1536 18.8906 16.2942 19.0781 16.2942C19.2656 16.2942 19.4062 16.1536 19.4062 15.9661C19.4062 15.7786 19.2656 15.638 19.0781 15.638Z" fill="white"/>
<path d="M1.5 9.63797V21.2114C1.5 21.4505 1.63078 21.7317 1.84547 21.9473C2.06062 22.163 2.34375 22.2942 2.57812 22.2942L20.5781 22.2989C20.8125 22.2989 21.0938 22.1677 21.3094 21.952C21.525 21.7364 21.6562 21.4552 21.6562 21.2161V17.888H17.5781C15.5156 17.888 15.5156 14.0442 17.5781 14.0442H21.6562V9.64266L1.5 9.63797Z" fill="white"/>
<path d="M28.9318 20V18.6875L34.8977 10.1307H28.8977V8.36364H37.5114V9.67614L31.5511 18.233H37.5455V20H28.9318ZM39.4943 20V11.2727H41.5511V20H39.4943ZM40.5284 10.0341C40.2027 10.0341 39.9223 9.92614 39.6875 9.71023C39.4527 9.49053 39.3352 9.22727 39.3352 8.92045C39.3352 8.60985 39.4527 8.34659 39.6875 8.13068C39.9223 7.91098 40.2027 7.80114 40.5284 7.80114C40.858 7.80114 41.1383 7.91098 41.3693 8.13068C41.6042 8.34659 41.7216 8.60985 41.7216 8.92045C41.7216 9.22727 41.6042 9.49053 41.3693 9.71023C41.1383 9.92614 40.858 10.0341 40.5284 10.0341ZM45.5412 17.2614L45.5355 14.7784H45.8651L49.0014 11.2727H51.4048L47.5469 15.5682H47.1207L45.5412 17.2614ZM43.6662 20V8.36364H45.723V20H43.6662ZM49.1435 20L46.3026 16.0284L47.6889 14.5795L51.6037 20H49.1435ZM56.223 20.1705C55.3707 20.1705 54.6321 19.983 54.0071 19.608C53.3821 19.233 52.8973 18.7083 52.5526 18.0341C52.2116 17.3598 52.0412 16.572 52.0412 15.6705C52.0412 14.7689 52.2116 13.9792 52.5526 13.3011C52.8973 12.6231 53.3821 12.0966 54.0071 11.7216C54.6321 11.3466 55.3707 11.1591 56.223 11.1591C57.0753 11.1591 57.8139 11.3466 58.4389 11.7216C59.0639 12.0966 59.5469 12.6231 59.8878 13.3011C60.2325 13.9792 60.4048 14.7689 60.4048 15.6705C60.4048 16.572 60.2325 17.3598 59.8878 18.0341C59.5469 18.7083 59.0639 19.233 58.4389 19.608C57.8139 19.983 57.0753 20.1705 56.223 20.1705ZM56.2344 18.5227C56.6965 18.5227 57.0829 18.3958 57.3935 18.142C57.7041 17.8845 57.9351 17.5398 58.0866 17.108C58.242 16.6761 58.3196 16.1951 58.3196 15.6648C58.3196 15.1307 58.242 14.6477 58.0866 14.2159C57.9351 13.7803 57.7041 13.4337 57.3935 13.1761C57.0829 12.9186 56.6965 12.7898 56.2344 12.7898C55.7609 12.7898 55.367 12.9186 55.0526 13.1761C54.742 13.4337 54.509 13.7803 54.3537 14.2159C54.2022 14.6477 54.1264 15.1307 54.1264 15.6648C54.1264 16.1951 54.2022 16.6761 54.3537 17.108C54.509 17.5398 54.742 17.8845 55.0526 18.142C55.367 18.3958 55.7609 18.5227 56.2344 18.5227ZM62.2415 20V8.36364H66.6051C67.4991 8.36364 68.2491 8.5303 68.8551 8.86364C69.465 9.19697 69.9252 9.6553 70.2358 10.2386C70.5502 10.8182 70.7074 11.4773 70.7074 12.2159C70.7074 12.9621 70.5502 13.625 70.2358 14.2045C69.9214 14.7841 69.4574 15.2405 68.8438 15.5739C68.2301 15.9034 67.4744 16.0682 66.5767 16.0682H63.6847V14.3352H66.2926C66.8153 14.3352 67.2434 14.2443 67.5767 14.0625C67.91 13.8807 68.1563 13.6307 68.3153 13.3125C68.4782 12.9943 68.5597 12.6288 68.5597 12.2159C68.5597 11.803 68.4782 11.4394 68.3153 11.125C68.1563 10.8106 67.9081 10.5663 67.571 10.392C67.2377 10.214 66.8078 10.125 66.2812 10.125H64.3494V20H62.2415ZM74.8026 20.1761C74.2495 20.1761 73.7514 20.0777 73.3082 19.8807C72.8688 19.6799 72.5204 19.3845 72.2628 18.9943C72.009 18.6042 71.8821 18.1231 71.8821 17.5511C71.8821 17.0587 71.973 16.6515 72.1548 16.3295C72.3366 16.0076 72.5848 15.75 72.8991 15.5568C73.2135 15.3636 73.5677 15.2178 73.9616 15.1193C74.3594 15.017 74.7704 14.9432 75.1946 14.8977C75.706 14.8447 76.1207 14.7973 76.4389 14.7557C76.7571 14.7102 76.9882 14.642 77.1321 14.5511C77.2798 14.4564 77.3537 14.3106 77.3537 14.1136V14.0795C77.3537 13.6515 77.2268 13.3201 76.973 13.0852C76.7192 12.8504 76.3537 12.733 75.8764 12.733C75.3726 12.733 74.973 12.8428 74.6776 13.0625C74.3859 13.2822 74.1889 13.5417 74.0866 13.8409L72.1662 13.5682C72.3177 13.0379 72.5677 12.5947 72.9162 12.2386C73.2647 11.8788 73.6908 11.6098 74.1946 11.4318C74.6984 11.25 75.2552 11.1591 75.8651 11.1591C76.2855 11.1591 76.7041 11.2083 77.1207 11.3068C77.5374 11.4053 77.9181 11.5682 78.2628 11.7955C78.6075 12.0189 78.884 12.3239 79.0923 12.7102C79.3045 13.0966 79.4105 13.5795 79.4105 14.1591V20H77.4332V18.8011H77.3651C77.2401 19.0436 77.0639 19.2708 76.8366 19.483C76.6132 19.6913 76.331 19.8598 75.9901 19.9886C75.6529 20.1136 75.2571 20.1761 74.8026 20.1761ZM75.3366 18.6648C75.7495 18.6648 76.1075 18.5833 76.4105 18.4205C76.7135 18.2538 76.9465 18.0341 77.1094 17.7614C77.276 17.4886 77.3594 17.1913 77.3594 16.8693V15.8409C77.295 15.8939 77.1851 15.9432 77.0298 15.9886C76.8783 16.0341 76.7079 16.0739 76.5185 16.108C76.3291 16.142 76.1416 16.1723 75.956 16.1989C75.7704 16.2254 75.6094 16.2481 75.473 16.267C75.1662 16.3087 74.8916 16.3769 74.6491 16.4716C74.4067 16.5663 74.2154 16.6989 74.0753 16.8693C73.9351 17.036 73.8651 17.2519 73.8651 17.517C73.8651 17.8958 74.0033 18.1818 74.2798 18.375C74.5563 18.5682 74.9086 18.6648 75.3366 18.6648ZM82.4446 23.2727C82.1643 23.2727 81.9048 23.25 81.6662 23.2045C81.4313 23.1629 81.2438 23.1136 81.1037 23.0568L81.581 21.4545C81.8802 21.5417 82.1473 21.5833 82.3821 21.5795C82.617 21.5758 82.8234 21.5019 83.0014 21.358C83.1832 21.2178 83.3366 20.983 83.4616 20.6534L83.6378 20.1818L80.473 11.2727H82.6548L84.6662 17.8636H84.7571L86.7741 11.2727H88.9616L85.4673 21.0568C85.3045 21.5189 85.0885 21.9148 84.8196 22.2443C84.5507 22.5777 84.2211 22.8314 83.831 23.0057C83.4446 23.1837 82.9825 23.2727 82.4446 23.2727Z" fill="white"/>
</svg>
